<svg width="30" height="34" viewBox="0 0 30 34" fill="none" xmlns="http://www.w3.org/2000/svg">
<path d="M21.32 11H8.67L8.23 7H21.77M15 22C14.2044 22 13.4413 21.6839 12.8787 21.1213C12.3161 20.5587 12 19.7956 12 19C12 17 15 13.6 15 13.6C15 13.6 18 17 18 19C18 19.7956 17.6839 20.5587 17.1213 21.1213C16.5587 21.6839 15.7956 22 15 22ZM6 5L8 23.23C8.13 24.23 8.97 25 10 25H20C21 25 21.87 24.23 22 23.23L24 5H6Z" fill="#032350"/>
<path d="M15 30C23.2843 30 30 23.2843 30 15C30 6.71573 23.2843 0 15 0C6.71573 0 0 6.71573 0 15C0 23.2843 6.71573 30 15 30Z" fill="#00265A" fill-opacity="0.3"/>
</svg>
