<svg width="43" height="36" viewBox="0 0 43 36" fill="none" xmlns="http://www.w3.org/2000/svg">
<circle cx="22" cy="17.9998" r="15" fill="#F4A952" fill-opacity="0.3"/>
<path d="M29.375 28.4998C28.6509 28.5414 27.9296 28.3804 27.292 28.0347C26.6544 27.6891 26.1257 27.1726 25.7654 26.5432C25.405 25.9138 25.2273 25.1964 25.252 24.4716C25.2768 23.7468 25.5031 23.0432 25.9055 22.4398L28.6175 18.4033C28.701 18.2791 28.8138 18.1773 28.9459 18.107C29.078 18.0366 29.2253 17.9998 29.375 17.9998C29.5247 17.9998 29.672 18.0366 29.8041 18.107C29.9362 18.1773 30.049 18.2791 30.1325 18.4033L32.795 22.3611C33.2354 23.0127 33.4801 23.7768 33.5 24.5631C33.4733 25.6315 33.0241 26.6458 32.2509 27.3837C31.4777 28.1216 30.4435 28.523 29.375 28.4998ZM19.25 17.9998V14.2498H20C20.7953 14.2488 21.5578 13.9324 22.1202 13.37C22.6826 12.8076 22.999 12.0452 23 11.2498V8.99982H20.75C19.982 9.00108 19.244 9.29846 18.6898 9.83007C18.3014 9.12489 17.731 8.53675 17.0381 8.12691C16.3452 7.71707 15.555 7.50052 14.75 7.49982H12.5V9.74982C12.5014 10.9429 12.9759 12.0866 13.8196 12.9303C14.6632 13.7739 15.807 14.2484 17 14.2498H17.75V17.9998H12.5V19.4998H23V17.9998H19.25ZM12.5 21.7498H23V23.2498H12.5V21.7498ZM12.5 25.4998H23V26.9998H12.5V25.4998Z" fill="#F4A952"/>
</svg>
