<svg width="548" height="568" viewBox="0 0 548 568" fill="none" xmlns="http://www.w3.org/2000/svg">
<g opacity="0.05">
<path d="M-172.328 33.9099C-69.2813 33.9099 14.2541 -49.5939 14.2541 -152.601C14.2541 -255.608 -69.2813 -339.112 -172.328 -339.112C-275.374 -339.112 -358.909 -255.608 -358.909 -152.601C-358.909 -49.5939 -275.374 33.9099 -172.328 33.9099Z" stroke="#333132" stroke-miterlimit="10" stroke-linecap="round" stroke-linejoin="round"/>
<path d="M-172.328 33.9099C-69.2813 33.9099 14.2541 -49.5939 14.2541 -152.601C14.2541 -255.608 -69.2813 -339.112 -172.328 -339.112C-275.374 -339.112 -358.909 -255.608 -358.909 -152.601C-358.909 -49.5939 -275.374 33.9099 -172.328 33.9099Z" stroke="#333132" stroke-miterlimit="10" stroke-linecap="round" stroke-linejoin="round"/>
<path d="M-172.328 51.6731C-59.4683 51.6731 32.0229 -39.7835 32.0229 -152.601C32.0229 -265.418 -59.4683 -356.875 -172.328 -356.875C-285.189 -356.875 -376.68 -265.418 -376.68 -152.601C-376.68 -39.7835 -285.189 51.6731 -172.328 51.6731Z" stroke="#333132" stroke-miterlimit="10" stroke-linecap="round" stroke-linejoin="round"/>
<path d="M-172.328 51.6731C-59.4683 51.6731 32.0229 -39.7835 32.0229 -152.601C32.0229 -265.418 -59.4683 -356.875 -172.328 -356.875C-285.189 -356.875 -376.68 -265.418 -376.68 -152.601C-376.68 -39.7835 -285.189 51.6731 -172.328 51.6731Z" stroke="#333132" stroke-miterlimit="10" stroke-linecap="round" stroke-linejoin="round"/>
<path d="M-172.327 69.4361C-49.6532 69.4361 49.7938 -29.9732 49.7938 -152.601C49.7938 -275.228 -49.6532 -374.638 -172.327 -374.638C-295.001 -374.638 -394.448 -275.228 -394.448 -152.601C-394.448 -29.9732 -295.001 69.4361 -172.327 69.4361Z" stroke="#333132" stroke-miterlimit="10" stroke-linecap="round" stroke-linejoin="round"/>
<path d="M-172.327 69.4361C-49.6532 69.4361 49.7938 -29.9732 49.7938 -152.601C49.7938 -275.228 -49.6532 -374.638 -172.327 -374.638C-295.001 -374.638 -394.448 -275.228 -394.448 -152.601C-394.448 -29.9732 -295.001 69.4361 -172.327 69.4361Z" stroke="#333132" stroke-miterlimit="10" stroke-linecap="round" stroke-linejoin="round"/>
<path d="M-172.326 87.1987C-39.838 87.1987 67.5648 -20.1633 67.5648 -152.601C67.5648 -285.039 -39.838 -392.401 -172.326 -392.401C-304.814 -392.401 -412.217 -285.039 -412.217 -152.601C-412.217 -20.1633 -304.814 87.1987 -172.326 87.1987Z" stroke="#333132" stroke-miterlimit="10" stroke-linecap="round" stroke-linejoin="round"/>
<path d="M-172.326 87.1987C-39.838 87.1987 67.5648 -20.1633 67.5648 -152.601C67.5648 -285.039 -39.838 -392.401 -172.326 -392.401C-304.814 -392.401 -412.217 -285.039 -412.217 -152.601C-412.217 -20.1633 -304.814 87.1987 -172.326 87.1987Z" stroke="#333132" stroke-miterlimit="10" stroke-linecap="round" stroke-linejoin="round"/>
<path d="M-172.327 104.962C-30.025 104.962 85.3335 -10.353 85.3335 -152.601C85.3335 -294.849 -30.025 -410.164 -172.327 -410.164C-314.629 -410.164 -429.987 -294.849 -429.987 -152.601C-429.987 -10.353 -314.629 104.962 -172.327 104.962Z" stroke="#333132" stroke-miterlimit="10" stroke-linecap="round" stroke-linejoin="round"/>
<path d="M-172.327 104.962C-30.025 104.962 85.3335 -10.353 85.3335 -152.601C85.3335 -294.849 -30.025 -410.164 -172.327 -410.164C-314.629 -410.164 -429.987 -294.849 -429.987 -152.601C-429.987 -10.353 -314.629 104.962 -172.327 104.962Z" stroke="#333132" stroke-miterlimit="10" stroke-linecap="round" stroke-linejoin="round"/>
<path d="M-172.328 122.725C-20.2119 122.725 103.102 -0.542694 103.102 -152.601C103.102 -304.659 -20.2119 -427.926 -172.328 -427.926C-324.444 -427.926 -447.758 -304.659 -447.758 -152.601C-447.758 -0.542694 -324.444 122.725 -172.328 122.725Z" stroke="#333132" stroke-miterlimit="10" stroke-linecap="round" stroke-linejoin="round"/>
<path d="M-172.328 122.725C-20.2119 122.725 103.102 -0.542694 103.102 -152.601C103.102 -304.659 -20.2119 -427.926 -172.328 -427.926C-324.444 -427.926 -447.758 -304.659 -447.758 -152.601C-447.758 -0.542694 -324.444 122.725 -172.328 122.725Z" stroke="#333132" stroke-miterlimit="10" stroke-linecap="round" stroke-linejoin="round"/>
<path d="M-172.329 140.488C-10.3989 140.488 120.871 9.26758 120.871 -152.601C120.871 -314.469 -10.3989 -445.689 -172.329 -445.689C-334.258 -445.689 -465.528 -314.469 -465.528 -152.601C-465.528 9.26758 -334.258 140.488 -172.329 140.488Z" stroke="#333132" stroke-miterlimit="10" stroke-linecap="round" stroke-linejoin="round"/>
<path d="M-172.329 140.488C-10.3989 140.488 120.871 9.26758 120.871 -152.601C120.871 -314.469 -10.3989 -445.689 -172.329 -445.689C-334.258 -445.689 -465.528 -314.469 -465.528 -152.601C-465.528 9.26758 -334.258 140.488 -172.329 140.488Z" stroke="#333132" stroke-miterlimit="10" stroke-linecap="round" stroke-linejoin="round"/>
<path d="M-172.33 158.251C-0.585938 158.251 138.64 19.0777 138.64 -152.601C138.64 -324.28 -0.585938 -463.453 -172.33 -463.453C-344.073 -463.453 -483.299 -324.28 -483.299 -152.601C-483.299 19.0777 -344.073 158.251 -172.33 158.251Z" stroke="#333132" stroke-miterlimit="10" stroke-linecap="round" stroke-linejoin="round"/>
<path d="M-172.33 158.251C-0.585938 158.251 138.64 19.0777 138.64 -152.601C138.64 -324.28 -0.585938 -463.453 -172.33 -463.453C-344.073 -463.453 -483.299 -324.28 -483.299 -152.601C-483.299 19.0777 -344.073 158.251 -172.33 158.251Z" stroke="#333132" stroke-miterlimit="10" stroke-linecap="round" stroke-linejoin="round"/>
<path d="M-172.328 176.803C9.6662 176.803 157.201 29.3241 157.201 -152.601C157.201 -334.525 9.6662 -482.005 -172.328 -482.005C-354.321 -482.005 -501.856 -334.525 -501.856 -152.601C-501.856 29.3241 -354.321 176.803 -172.328 176.803Z" stroke="#333132" stroke-miterlimit="10" stroke-linecap="round" stroke-linejoin="round"/>
<path d="M-172.328 176.803C9.6662 176.803 157.201 29.3241 157.201 -152.601C157.201 -334.525 9.6662 -482.005 -172.328 -482.005C-354.321 -482.005 -501.856 -334.525 -501.856 -152.601C-501.856 29.3241 -354.321 176.803 -172.328 176.803Z" stroke="#333132" stroke-miterlimit="10" stroke-linecap="round" stroke-linejoin="round"/>
<path d="M-172.328 194.961C19.6977 194.961 175.365 39.352 175.365 -152.601C175.365 -344.554 19.6977 -500.163 -172.328 -500.163C-364.354 -500.163 -520.021 -344.554 -520.021 -152.601C-520.021 39.352 -364.354 194.961 -172.328 194.961Z" stroke="#333132" stroke-miterlimit="10" stroke-linecap="round" stroke-linejoin="round"/>
<path d="M-172.328 194.961C19.6977 194.961 175.365 39.352 175.365 -152.601C175.365 -344.554 19.6977 -500.163 -172.328 -500.163C-364.354 -500.163 -520.021 -344.554 -520.021 -152.601C-520.021 39.352 -364.354 194.961 -172.328 194.961Z" stroke="#333132" stroke-miterlimit="10" stroke-linecap="round" stroke-linejoin="round"/>
<path d="M-172.329 212.526C29.4015 212.526 192.936 49.0532 192.936 -152.601C192.936 -354.255 29.4015 -517.728 -172.329 -517.728C-374.06 -517.728 -537.595 -354.255 -537.595 -152.601C-537.595 49.0532 -374.06 212.526 -172.329 212.526Z" stroke="#333132" stroke-miterlimit="10" stroke-linecap="round" stroke-linejoin="round"/>
<path d="M-172.327 229.302C38.6723 229.302 209.721 58.3185 209.721 -152.601C209.721 -363.52 38.6723 -534.504 -172.327 -534.504C-383.326 -534.504 -554.375 -363.52 -554.375 -152.601C-554.375 58.3185 -383.326 229.302 -172.327 229.302Z" stroke="#333132" stroke-miterlimit="10" stroke-linecap="round" stroke-linejoin="round"/>
<path d="M-172.327 229.302C38.6723 229.302 209.721 58.3185 209.721 -152.601C209.721 -363.52 38.6723 -534.504 -172.327 -534.504C-383.326 -534.504 -554.375 -363.52 -554.375 -152.601C-554.375 58.3185 -383.326 229.302 -172.327 229.302Z" stroke="#333132" stroke-miterlimit="10" stroke-linecap="round" stroke-linejoin="round"/>
<path d="M-172.328 247.066C48.4857 247.066 227.49 68.129 227.49 -152.601C227.49 -373.33 48.4857 -552.267 -172.328 -552.267C-393.141 -552.267 -572.146 -373.33 -572.146 -152.601C-572.146 68.129 -393.141 247.066 -172.328 247.066Z" stroke="#333132" stroke-miterlimit="10" stroke-linecap="round" stroke-linejoin="round"/>
<path d="M-172.328 247.066C48.4857 247.066 227.49 68.129 227.49 -152.601C227.49 -373.33 48.4857 -552.267 -172.328 -552.267C-393.141 -552.267 -572.146 -373.33 -572.146 -152.601C-572.146 68.129 -393.141 247.066 -172.328 247.066Z" stroke="#333132" stroke-miterlimit="10" stroke-linecap="round" stroke-linejoin="round"/>
<path d="M-172.327 264.828C58.3006 264.828 245.261 77.9389 245.261 -152.601C245.261 -383.141 58.3006 -570.03 -172.327 -570.03C-402.954 -570.03 -589.914 -383.141 -589.914 -152.601C-589.914 77.9389 -402.954 264.828 -172.327 264.828Z" stroke="#333132" stroke-miterlimit="10" stroke-linecap="round" stroke-linejoin="round"/>
<path d="M-172.327 264.828C58.3006 264.828 245.261 77.9389 245.261 -152.601C245.261 -383.141 58.3006 -570.03 -172.327 -570.03C-402.954 -570.03 -589.914 -383.141 -589.914 -152.601C-589.914 77.9389 -402.954 264.828 -172.327 264.828Z" stroke="#333132" stroke-miterlimit="10" stroke-linecap="round" stroke-linejoin="round"/>
<path d="M-172.327 282.591C68.1136 282.591 263.03 87.7491 263.03 -152.601C263.03 -392.951 68.1136 -587.793 -172.327 -587.793C-412.769 -587.793 -607.685 -392.951 -607.685 -152.601C-607.685 87.7491 -412.769 282.591 -172.327 282.591Z" stroke="#333132" stroke-miterlimit="10" stroke-linecap="round" stroke-linejoin="round"/>
<path d="M-172.327 282.591C68.1136 282.591 263.03 87.7491 263.03 -152.601C263.03 -392.951 68.1136 -587.793 -172.327 -587.793C-412.769 -587.793 -607.685 -392.951 -607.685 -152.601C-607.685 87.7491 -412.769 282.591 -172.327 282.591Z" stroke="#333132" stroke-miterlimit="10" stroke-linecap="round" stroke-linejoin="round"/>
<path d="M-172.328 300.354C77.9268 300.354 280.799 97.5593 280.799 -152.601C280.799 -402.761 77.9268 -605.556 -172.328 -605.556C-422.583 -605.556 -625.455 -402.761 -625.455 -152.601C-625.455 97.5593 -422.583 300.354 -172.328 300.354Z" stroke="#333132" stroke-miterlimit="10" stroke-linecap="round" stroke-linejoin="round"/>
<path d="M-172.328 300.354C77.9268 300.354 280.799 97.5593 280.799 -152.601C280.799 -402.761 77.9268 -605.556 -172.328 -605.556C-422.583 -605.556 -625.455 -402.761 -625.455 -152.601C-625.455 97.5593 -422.583 300.354 -172.328 300.354Z" stroke="#333132" stroke-miterlimit="10" stroke-linecap="round" stroke-linejoin="round"/>
<path d="M-172.329 318.117C87.7397 318.117 298.567 107.37 298.567 -152.601C298.567 -412.571 87.7397 -623.319 -172.329 -623.319C-432.398 -623.319 -643.226 -412.571 -643.226 -152.601C-643.226 107.37 -432.398 318.117 -172.329 318.117Z" stroke="#333132" stroke-miterlimit="10" stroke-linecap="round" stroke-linejoin="round"/>
<path d="M-172.329 318.117C87.7397 318.117 298.567 107.37 298.567 -152.601C298.567 -412.571 87.7397 -623.319 -172.329 -623.319C-432.398 -623.319 -643.226 -412.571 -643.226 -152.601C-643.226 107.37 -432.398 318.117 -172.329 318.117Z" stroke="#333132" stroke-miterlimit="10" stroke-linecap="round" stroke-linejoin="round"/>
<path d="M-172.327 335.88C97.5558 335.88 316.339 117.18 316.339 -152.601C316.339 -422.382 97.5558 -641.082 -172.327 -641.082C-442.21 -641.082 -660.993 -422.382 -660.993 -152.601C-660.993 117.18 -442.21 335.88 -172.327 335.88Z" stroke="#333132" stroke-miterlimit="10" stroke-linecap="round" stroke-linejoin="round"/>
<path d="M-172.327 335.88C97.5558 335.88 316.339 117.18 316.339 -152.601C316.339 -422.382 97.5558 -641.082 -172.327 -641.082C-442.21 -641.082 -660.993 -422.382 -660.993 -152.601C-660.993 117.18 -442.21 335.88 -172.327 335.88Z" stroke="#333132" stroke-miterlimit="10" stroke-linecap="round" stroke-linejoin="round"/>
<path d="M-172.329 353.643C107.368 353.643 334.107 126.99 334.107 -152.601C334.107 -432.192 107.368 -658.845 -172.329 -658.845C-452.026 -658.845 -678.765 -432.192 -678.765 -152.601C-678.765 126.99 -452.026 353.643 -172.329 353.643Z" stroke="#333132" stroke-miterlimit="10" stroke-linecap="round" stroke-linejoin="round"/>
<path d="M-172.328 371.998C117.51 371.998 352.47 137.127 352.47 -152.601C352.47 -442.329 117.51 -677.2 -172.328 -677.2C-462.166 -677.2 -697.126 -442.329 -697.126 -152.601C-697.126 137.127 -462.166 371.998 -172.328 371.998Z" stroke="#333132" stroke-miterlimit="10" stroke-linecap="round" stroke-linejoin="round"/>
<path d="M-172.328 371.998C117.51 371.998 352.47 137.127 352.47 -152.601C352.47 -442.329 117.51 -677.2 -172.328 -677.2C-462.166 -677.2 -697.126 -442.329 -697.126 -152.601C-697.126 137.127 -462.166 371.998 -172.328 371.998Z" stroke="#333132" stroke-miterlimit="10" stroke-linecap="round" stroke-linejoin="round"/>
<path d="M-172.33 389.169C126.995 389.169 369.646 146.61 369.646 -152.601C369.646 -451.812 126.995 -694.371 -172.33 -694.371C-471.654 -694.371 -714.305 -451.812 -714.305 -152.601C-714.305 146.61 -471.654 389.169 -172.33 389.169Z" stroke="#333132" stroke-miterlimit="10" stroke-linecap="round" stroke-linejoin="round"/>
<path d="M-172.33 389.169C126.995 389.169 369.646 146.61 369.646 -152.601C369.646 -451.812 126.995 -694.371 -172.33 -694.371C-471.654 -694.371 -714.305 -451.812 -714.305 -152.601C-714.305 146.61 -471.654 389.169 -172.33 389.169Z" stroke="#333132" stroke-miterlimit="10" stroke-linecap="round" stroke-linejoin="round"/>
<path d="M-172.328 406.932C136.81 406.932 387.417 156.42 387.417 -152.601C387.417 -461.622 136.81 -712.134 -172.328 -712.134C-481.467 -712.134 -732.073 -461.622 -732.073 -152.601C-732.073 156.42 -481.467 406.932 -172.328 406.932Z" stroke="#333132" stroke-miterlimit="10" stroke-linecap="round" stroke-linejoin="round"/>
<path d="M-172.328 406.932C136.81 406.932 387.417 156.42 387.417 -152.601C387.417 -461.622 136.81 -712.134 -172.328 -712.134C-481.467 -712.134 -732.073 -461.622 -732.073 -152.601C-732.073 156.42 -481.467 406.932 -172.328 406.932Z" stroke="#333132" stroke-miterlimit="10" stroke-linecap="round" stroke-linejoin="round"/>
<path d="M-172.329 424.695C146.623 424.695 405.185 166.231 405.185 -152.601C405.185 -471.432 146.623 -729.896 -172.329 -729.896C-491.282 -729.896 -749.844 -471.432 -749.844 -152.601C-749.844 166.231 -491.282 424.695 -172.329 424.695Z" stroke="#333132" stroke-miterlimit="10" stroke-linecap="round" stroke-linejoin="round"/>
<path d="M-172.329 424.695C146.623 424.695 405.185 166.231 405.185 -152.601C405.185 -471.432 146.623 -729.896 -172.329 -729.896C-491.282 -729.896 -749.844 -471.432 -749.844 -152.601C-749.844 166.231 -491.282 424.695 -172.329 424.695Z" stroke="#333132" stroke-miterlimit="10" stroke-linecap="round" stroke-linejoin="round"/>
<path d="M-172.328 443.05C156.766 443.05 423.549 176.368 423.549 -152.601C423.549 -481.57 156.766 -748.252 -172.328 -748.252C-501.421 -748.252 -768.204 -481.57 -768.204 -152.601C-768.204 176.368 -501.421 443.05 -172.328 443.05Z" stroke="#333132" stroke-miterlimit="10" stroke-linecap="round" stroke-linejoin="round"/>
<path d="M-172.328 443.05C156.766 443.05 423.549 176.368 423.549 -152.601C423.549 -481.57 156.766 -748.252 -172.328 -748.252C-501.421 -748.252 -768.204 -481.57 -768.204 -152.601C-768.204 176.368 -501.421 443.05 -172.328 443.05Z" stroke="#333132" stroke-miterlimit="10" stroke-linecap="round" stroke-linejoin="round"/>
<path d="M-172.328 460.813C166.579 460.813 441.318 186.178 441.318 -152.601C441.318 -491.38 166.579 -766.015 -172.328 -766.015C-511.236 -766.015 -785.975 -491.38 -785.975 -152.601C-785.975 186.178 -511.236 460.813 -172.328 460.813Z" stroke="#333132" stroke-miterlimit="10" stroke-linecap="round" stroke-linejoin="round"/>
<path d="M-172.327 478.379C176.285 478.379 458.891 195.88 458.891 -152.601C458.891 -501.081 176.285 -783.58 -172.327 -783.58C-520.94 -783.58 -803.546 -501.081 -803.546 -152.601C-803.546 195.88 -520.94 478.379 -172.327 478.379Z" stroke="#333132" stroke-miterlimit="10" stroke-linecap="round" stroke-linejoin="round"/>
<path d="M-172.327 478.379C176.285 478.379 458.891 195.88 458.891 -152.601C458.891 -501.081 176.285 -783.58 -172.327 -783.58C-520.94 -783.58 -803.546 -501.081 -803.546 -152.601C-803.546 195.88 -520.94 478.379 -172.327 478.379Z" stroke="#333132" stroke-miterlimit="10" stroke-linecap="round" stroke-linejoin="round"/>
<path d="M-172.327 495.747C185.882 495.747 476.267 205.472 476.267 -152.601C476.267 -510.673 185.882 -800.948 -172.327 -800.948C-530.535 -800.948 -820.92 -510.673 -820.92 -152.601C-820.92 205.472 -530.535 495.747 -172.327 495.747Z" stroke="#333132" stroke-miterlimit="10" stroke-linecap="round" stroke-linejoin="round"/>
<path d="M-172.327 495.747C185.882 495.747 476.267 205.472 476.267 -152.601C476.267 -510.673 185.882 -800.948 -172.327 -800.948C-530.535 -800.948 -820.92 -510.673 -820.92 -152.601C-820.92 205.472 -530.535 495.747 -172.327 495.747Z" stroke="#333132" stroke-miterlimit="10" stroke-linecap="round" stroke-linejoin="round"/>
<path d="M-172.327 513.51C195.695 513.51 494.036 215.282 494.036 -152.601C494.036 -520.483 195.695 -818.711 -172.327 -818.711C-540.35 -818.711 -838.69 -520.483 -838.69 -152.601C-838.69 215.282 -540.35 513.51 -172.327 513.51Z" stroke="#333132" stroke-miterlimit="10" stroke-linecap="round" stroke-linejoin="round"/>
<path d="M-172.327 513.51C195.695 513.51 494.036 215.282 494.036 -152.601C494.036 -520.483 195.695 -818.711 -172.327 -818.711C-540.35 -818.711 -838.69 -520.483 -838.69 -152.601C-838.69 215.282 -540.35 513.51 -172.327 513.51Z" stroke="#333132" stroke-miterlimit="10" stroke-linecap="round" stroke-linejoin="round"/>
<path d="M-172.328 531.272C205.508 531.272 511.804 225.092 511.804 -152.601C511.804 -530.294 205.508 -836.474 -172.328 -836.474C-550.164 -836.474 -856.461 -530.294 -856.461 -152.601C-856.461 225.092 -550.164 531.272 -172.328 531.272Z" stroke="#333132" stroke-miterlimit="10" stroke-linecap="round" stroke-linejoin="round"/>
<path d="M-172.327 549.036C215.323 549.036 529.575 234.903 529.575 -152.601C529.575 -540.104 215.323 -854.237 -172.327 -854.237C-559.977 -854.237 -874.229 -540.104 -874.229 -152.601C-874.229 234.903 -559.977 549.036 -172.327 549.036Z" stroke="#333132" stroke-miterlimit="10" stroke-linecap="round" stroke-linejoin="round"/>
<path d="M-172.327 549.036C215.323 549.036 529.575 234.903 529.575 -152.601C529.575 -540.104 215.323 -854.237 -172.327 -854.237C-559.977 -854.237 -874.229 -540.104 -874.229 -152.601C-874.229 234.903 -559.977 549.036 -172.327 549.036Z" stroke="#333132" stroke-miterlimit="10" stroke-linecap="round" stroke-linejoin="round"/>
<path d="M-172.328 566.799C225.136 566.799 547.344 244.713 547.344 -152.601C547.344 -549.914 225.136 -872 -172.328 -872C-569.792 -872 -892 -549.914 -892 -152.601C-892 244.713 -569.792 566.799 -172.328 566.799Z" stroke="#333132" stroke-miterlimit="10" stroke-linecap="round" stroke-linejoin="round"/>
</g>
</svg>
